<?xml version="1.0" encoding="UTF-8" standalone="no"?>
<!-- Created with Inkscape (http://www.inkscape.org/) -->

<svg
   width="210mm"
   height="297mm"
   viewBox="0 0 210 297"
   version="1.1"
   id="svg8"
   inkscape:version="1.2-beta (1b65182, 2022-04-05)"
   sodipodi:docname="monreal.svg"
   xml:space="preserve"
   xmlns:inkscape="http://www.inkscape.org/namespaces/inkscape"
   xmlns:sodipodi="http://sodipodi.sourceforge.net/DTD/sodipodi-0.dtd"
   xmlns="http://www.w3.org/2000/svg"
   xmlns:svg="http://www.w3.org/2000/svg"
   xmlns:rdf="http://www.w3.org/1999/02/22-rdf-syntax-ns#"
   xmlns:cc="http://creativecommons.org/ns#"
   xmlns:dc="http://purl.org/dc/elements/1.1/"><defs
     id="defs2"><filter
       inkscape:collect="always"
       style="color-interpolation-filters:sRGB"
       id="filter984"
       x="-0.011386905"
       width="1.0227738"
       y="-0.012682872"
       height="1.0253657"><feGaussianBlur
         inkscape:collect="always"
         stdDeviation="0.81439781"
         id="feGaussianBlur986" /></filter><filter
       inkscape:collect="always"
       style="color-interpolation-filters:sRGB"
       id="filter984-2"
       x="-0.011386905"
       width="1.0227738"
       y="-0.012682872"
       height="1.0253657"><feGaussianBlur
         inkscape:collect="always"
         stdDeviation="0.81439781"
         id="feGaussianBlur986-5" /></filter><filter
       inkscape:collect="always"
       style="color-interpolation-filters:sRGB"
       id="filter984-5"
       x="-0.011386905"
       width="1.0227738"
       y="-0.012682872"
       height="1.0253657"><feGaussianBlur
         inkscape:collect="always"
         stdDeviation="0.81439781"
         id="feGaussianBlur986-3" /></filter></defs><sodipodi:namedview
     id="base"
     pagecolor="#ffffff"
     bordercolor="#666666"
     borderopacity="1.0"
     inkscape:pageopacity="0.0"
     inkscape:pageshadow="2"
     inkscape:zoom="0.22627417"
     inkscape:cx="-519.28154"
     inkscape:cy="1034.1437"
     inkscape:document-units="mm"
     inkscape:current-layer="layer1"
     showgrid="false"
     showguides="false"
     inkscape:window-width="1366"
     inkscape:window-height="719"
     inkscape:window-x="0"
     inkscape:window-y="25"
     inkscape:window-maximized="1"
     inkscape:pagecheckerboard="0"
     inkscape:deskcolor="#d1d1d1" /><metadata
     id="metadata5"><rdf:RDF><cc:Work
         rdf:about=""><dc:format>image/svg+xml</dc:format><dc:type
           rdf:resource="http://purl.org/dc/dcmitype/StillImage" /><dc:title /></cc:Work></rdf:RDF></metadata><g
     inkscape:label="Layer 1"
     inkscape:groupmode="layer"
     id="layer1"><rect
       style="opacity:0.95;fill:none;fill-opacity:1;stroke:none;stroke-width:2.39936662;stroke-linejoin:round;stroke-miterlimit:4;stroke-dasharray:none;stroke-opacity:1;filter:url(#filter984)"
       id="rect982"
       width="171.64934"
       height="154.10979"
       x="15.500061"
       y="27.113182"
       inkscape:export-xdpi="433.99875"
       inkscape:export-ydpi="433.99875" /><rect
       style="opacity:0.95;fill:none;fill-opacity:1;stroke:none;stroke-width:2.39936662;stroke-linejoin:round;stroke-miterlimit:4;stroke-dasharray:none;stroke-opacity:1;filter:url(#filter984-2)"
       id="rect982-5"
       width="171.64934"
       height="154.10979"
       x="-654.10651"
       y="293.61127"
       transform="matrix(2.4159459,0,0,0.78339444,927.14094,86.582125)"
       inkscape:export-xdpi="266"
       inkscape:export-ydpi="266" /><flowRoot
       xml:space="preserve"
       id="flowRoot869-6-0"
       style="font-style:normal;font-weight:normal;font-size:265.627px;line-height:1.25;font-family:sans-serif;letter-spacing:0px;word-spacing:0px;fill:#000000;fill-opacity:1;stroke:none;stroke-opacity:1"
       transform="matrix(0.26458333,0,0,0.26458333,502.99687,-163.07667)"
       inkscape:export-xdpi="842.6037"
       inkscape:export-ydpi="842.6037"
       inkscape:export-filename="monreal_box.png"><flowRegion
         id="flowRegion871-7-4"
         style="font-size:265.627px;stroke:none;stroke-opacity:1"><rect
           id="rect873-7-0"
           width="1096.0155"
           height="331.4563"
           x="-1767.767"
           y="928.06531"
           style="font-size:265.62667847px;stroke:none;stroke-opacity:1" /></flowRegion><flowPara
         id="flowPara875-3-2"
         style="font-style:normal;font-variant:normal;font-weight:normal;font-stretch:normal;font-size:146.667px;font-family:'Trebuchet MS';-inkscape-font-specification:'Trebuchet MS';stroke:none;stroke-opacity:1">Monreal</flowPara></flowRoot><flowRoot
       xml:space="preserve"
       id="flowRoot1057"
       style="font-style:normal;font-weight:normal;font-size:40px;line-height:1.25;font-family:sans-serif;letter-spacing:0px;word-spacing:0px;fill:#000000;fill-opacity:1;stroke:none"><flowRegion
         id="flowRegion1059"><rect
           id="rect1061"
           width="1933.4951"
           height="669.54175"
           x="-2631.7629"
           y="1120.3099" /></flowRegion><flowPara
         id="flowPara1063" /></flowRoot><flowRoot
       xml:space="preserve"
       id="flowRoot1065"
       style="font-style:normal;font-weight:normal;font-size:40px;line-height:1.25;font-family:sans-serif;letter-spacing:0px;word-spacing:0px;fill:#000000;fill-opacity:1;stroke:none"><flowRegion
         id="flowRegion1067"><rect
           id="rect1069"
           width="1241.8563"
           height="3595.196"
           x="-1895.9301"
           y="921.43622" /></flowRegion><flowPara
         id="flowPara1071" /></flowRoot><flowRoot
       xml:space="preserve"
       id="flowRoot849"
       style="font-style:normal;font-variant:normal;font-weight:normal;font-stretch:normal;font-size:40px;line-height:1.25;font-family:Norasi;-inkscape-font-specification:Norasi;letter-spacing:0px;word-spacing:0px;fill:#000000;fill-opacity:1;stroke:none"><flowRegion
         id="flowRegion851"><rect
           id="rect853"
           width="153.125"
           height="157.8125"
           x="682.8125"
           y="330.33218" /></flowRegion><flowPara
         id="flowPara855" /></flowRoot><path
       style="fill:#000000;stroke:#000000;stroke-width:3.51354027;stroke-miterlimit:4;stroke-dasharray:none;stroke-opacity:1"
       d="m 94.580984,110.44401 c -8.50279,-1.50494 -16.49768,-5.82032 -22.45441,-12.120195 -16.53181,-17.484187 -14.06346,-45.438568 5.2884,-59.891409 20.17123,-15.064778 49.148556,-7.946631 60.215536,14.791659 10.64192,21.864971 -0.60398,48.243905 -23.79089,55.805075 -5.92195,1.93113 -13.28537,2.47208 -19.258636,1.41487 z m 13.290486,-3.34415 c 9.63712,-1.64526 18.76405,-7.583065 24.19814,-15.742855 12.32429,-18.505968 5.72843,-43.703598 -14.01384,-53.536035 -12.11306,-6.032783 -26.096756,-5.187449 -37.269216,2.252973 -11.09332,7.387739 -17.48502,20.931354 -16.12639,34.17085 2.21818,21.615632 21.80653,36.509337 43.211306,32.855067 z"
       id="path942-7"
       inkscape:connector-curvature="0"
       sodipodi:nodetypes="csssccscscss"
       inkscape:export-xdpi="842.6037"
       inkscape:export-ydpi="842.6037" /><rect
       style="opacity:0.95;fill:none;fill-opacity:1;stroke:none;stroke-width:2.39936662;stroke-linejoin:round;stroke-miterlimit:4;stroke-dasharray:none;stroke-opacity:1;filter:url(#filter984-5)"
       id="rect982-56"
       width="171.64934"
       height="154.10979"
       x="-186.96948"
       y="191.29716"
       inkscape:export-xdpi="433.99875"
       inkscape:export-ydpi="433.99875" /><flowRoot
       xml:space="preserve"
       id="flowRoot869-6-0-2"
       style="font-style:normal;font-weight:normal;font-size:265.627px;line-height:1.25;font-family:sans-serif;letter-spacing:0px;word-spacing:0px;fill:#000000;fill-opacity:1;stroke:none;stroke-opacity:1"
       transform="matrix(0.26458333,0,0,0.26458333,530.60871,-77.791349)"
       inkscape:export-xdpi="593.26587"
       inkscape:export-ydpi="593.26587"
       inkscape:export-filename="monreal_line.png"><flowRegion
         id="flowRegion871-7-4-9"
         style="font-size:265.627px;stroke:none;stroke-opacity:1"><rect
           id="rect873-7-0-1"
           width="1096.0155"
           height="331.4563"
           x="-1767.767"
           y="928.06531"
           style="font-size:265.62667847px;stroke:none;stroke-opacity:1" /></flowRegion><flowPara
         id="flowPara875-3-2-2"
         style="font-style:normal;font-variant:normal;font-weight:normal;font-stretch:normal;font-size:146.667px;font-family:'Trebuchet MS';-inkscape-font-specification:'Trebuchet MS';stroke:none;stroke-opacity:1">Monreal</flowPara></flowRoot><path
       style="fill:#000000;stroke:#000000;stroke-width:1.97167611;stroke-miterlimit:4;stroke-dasharray:none;stroke-opacity:1"
       d="m 28.356688,240.19444 c -4.77144,-0.84461 -9.25788,-3.26618 -12.60059,-6.80145 -9.2771003,-9.81154 -7.8919603,-25.49854 2.96763,-33.60895 11.31942,-8.45384 27.58047,-4.45939 33.79089,8.30053 5.97185,12.26985 -0.33892,27.07278 -13.35061,31.31588 -3.32321,1.08364 -7.45528,1.38724 -10.80732,0.79399 z m 7.45818,-1.87666 c 5.408,-0.92324 10.52972,-4.25534 13.57918,-8.83434 6.91595,-10.38489 3.21457,-24.52494 -7.86409,-30.04258 -6.79745,-3.38537 -14.64462,-2.91101 -20.91417,1.26434 -6.22521,4.14577 -9.81201,11.74592 -9.04957,19.17549 1.24476,12.12994 12.23706,20.48777 24.24865,18.43709 z"
       id="path942-7-9"
       inkscape:connector-curvature="0"
       sodipodi:nodetypes="csssccscscss"
       inkscape:export-xdpi="593.26587"
       inkscape:export-ydpi="593.26587" /><path
       style="fill:#ff0000;fill-opacity:1;stroke-width:0.0610954"
       d="m 24.286655,231.99888 c 0.0012,-1.54272 0.66086,-2.46866 1.902075,-2.67009 0.53066,-0.0861 12.038346,-0.0861 12.569009,0 1.241214,0.20143 1.900842,1.12737 1.902075,2.67009 l 3.16e-4,0.44295 h -8.186932 -8.186933 l 3.16e-4,-0.44295 z m 6.287845,-15.64071 -0.0047,-11.74581 -0.621496,-0.41569 c -0.341825,-0.22863 -0.868939,-0.59092 -1.171368,-0.80509 -1.344874,-0.95237 -2.117807,-1.11745 -3.543597,-0.75685 -0.530409,0.13413 -1.649803,0.55318 -1.830286,0.68515 -0.105696,0.0773 0.02243,0.46824 2.279427,6.95612 1.315282,3.78085 2.408443,6.95941 2.429255,7.06346 0.07658,0.38291 -0.532531,1.41141 -1.267044,2.13944 -1.061565,1.05219 -2.472544,1.63587 -4.116309,1.70281 -1.746233,0.0712 -3.325579,-0.48415 -4.52782,-1.59198 -0.723651,-0.66677 -1.367994,-1.68078 -1.367994,-2.15274 0,-0.22613 4.936441,-14.53105 5.103805,-14.78996 0.172894,-0.26744 1.888949,-1.01228 3.022031,-1.31172 0.667448,-0.17635 1.979381,-0.22164 2.504957,-0.0865 0.617902,0.15893 1.437094,0.58701 2.280004,1.19137 0.424246,0.30418 0.785882,0.55307 0.803637,0.55307 0.01775,0 0.03227,-0.0678 0.03227,-0.15045 2.611547,-0.0125 2.667596,-0.008 3.847958,-0.0109 0,0.4444 -0.04091,1.01672 0.02245,1.01672 0.04534,0 0.464609,-0.11268 0.931725,-0.25038 1.718448,-0.50656 2.654838,-0.60199 3.581508,-0.36497 0.828388,0.21187 1.825624,0.79917 2.857943,1.68314 0.649734,0.55634 1.021286,0.9975 1.172769,1.39243 0.06743,0.17583 1.247095,3.54494 2.621475,7.48695 1.557832,4.46819 2.498649,7.25217 2.498278,7.39268 -0.002,0.69606 -1.04158,2.04472 -2.105644,2.73129 -1.093874,0.7058 -2.169785,1.01773 -3.514641,1.01899 -1.303097,0.005 -2.363251,-0.28946 -3.421935,-0.93825 -0.935703,-0.5734 -1.859194,-1.6522 -2.174653,-2.54041 l -0.108844,-0.30646 2.511166,-7.20146 2.511166,-7.20146 -0.498528,-0.48486 c -0.671289,-0.65285 -1.362778,-1.15802 -2.02598,-1.48004 -1.008056,-0.48948 -1.511131,-0.48325 -3.390814,0.0421 -0.588055,0.16431 -1.165416,0.32227 -1.283026,0.35101 l -0.21384,0.0522 -0.01544,11.43642 -0.01544,13.55311 H 32.47309 30.579257 Z m 15.929325,4.03271 c -0.06797,-0.25994 -3.966473,-11.44075 -4.004102,-11.48368 -0.02074,-0.0236 -0.818682,2.20331 -1.773215,4.94882 -0.954534,2.7455 -1.868023,5.36988 -2.029976,5.83191 l -0.29446,0.84006 h 4.068807 4.068803 z M 26.53669,216.74795 c -0.01121,-0.0292 -0.926002,-2.65511 -2.032891,-5.83529 -1.106886,-3.1802 -2.03293,-5.7613 -2.057872,-5.73576 -0.02496,0.0255 -0.924708,2.57582 -1.999478,5.6673 -1.074769,3.0915 -1.983232,5.6965 -2.018806,5.7889 l -0.06467,0.16802 h 4.097045 c 2.297829,0 4.088103,-0.0233 4.076681,-0.0532 z"
       id="path3078"
       sodipodi:nodetypes="cssscccccccssssssscsssscssccsssssscscsscccssccccccccsssscccscsssscscc" /><path
       style="fill:#ff0000;fill-opacity:1;stroke-width:0.109719"
       d="m 86.562792,97.068518 c 0.0024,-2.770505 1.186807,-4.433358 3.415853,-4.795098 0.952991,-0.154619 21.619125,-0.154619 22.572145,0 2.22902,0.36174 3.41363,2.024593 3.41584,4.795098 l 5.7e-4,0.795477 H 101.26466 86.56209 l 5.7e-4,-0.795477 z m 11.292053,-28.088467 -0.0065,-21.093789 -1.116094,-0.746517 c -0.614231,-0.41059 -1.560851,-1.06121 -2.10397,-1.445828 -2.4152,-1.710319 -3.803275,-2.006779 -6.363791,-1.359194 -0.952541,0.240878 -2.962809,0.993433 -3.286932,1.230433 -0.189813,0.13881 0.04029,0.84089 4.093526,12.492191 2.362057,6.789864 4.325217,12.4981 4.362588,12.684958 0.137515,0.687651 -0.956345,2.534691 -2.275425,3.842128 -1.90642,1.889582 -4.440336,2.937788 -7.3923,3.058003 -3.135985,0.127873 -5.972264,-0.869465 -8.131315,-2.858968 -1.299574,-1.197421 -2.456722,-3.018439 -2.456722,-3.866014 0,-0.406097 8.865138,-26.095676 9.165703,-26.560641 0.310492,-0.480281 3.39228,-1.817908 5.427134,-2.355657 1.198638,-0.316705 3.554682,-0.398038 4.498542,-0.155351 1.109665,0.285413 2.580813,1.054184 4.094557,2.139527 0.761891,0.546265 1.41133,0.993236 1.443211,0.993236 0.03177,0 0.05819,-0.121758 0.05819,-0.270186 4.689973,-0.02246 4.790643,-0.01433 6.910383,-0.01959 0,0.798077 -0.0734,1.825882 0.0402,1.825882 0.0815,0 0.83439,-0.202357 1.67323,-0.449645 3.08609,-0.909709 4.76773,-1.081087 6.43189,-0.655432 1.48764,0.380487 3.27853,1.435195 5.13245,3.022674 1.16682,0.99911 1.83409,1.791368 2.1061,2.500604 0.12096,0.315768 2.23966,6.366204 4.70783,13.445489 2.79764,8.024226 4.48721,13.023853 4.48653,13.276191 -0.002,1.250023 -1.87052,3.672023 -3.78144,4.905005 -1.96444,1.267515 -3.89659,1.827696 -6.31176,1.82996 -2.34021,0.009 -4.24407,-0.519826 -6.14532,-1.684964 -1.6804,-1.029744 -3.33883,-2.967116 -3.90537,-4.562211 l -0.19546,-0.550359 4.50969,-12.932786 4.50968,-12.932788 -0.8953,-0.87074 c -1.2055,-1.172425 -2.44734,-2.079633 -3.63836,-2.657937 -1.81028,-0.879035 -2.71377,-0.867851 -6.08941,0.07562 -1.05607,0.295078 -2.09295,0.57875 -2.30412,0.630362 l -0.38403,0.09374 -0.0276,20.538168 -0.0276,24.339437 h -3.40107 -3.401066 z m 28.606785,7.242168 c -0.12201,-0.466815 -7.12322,-20.545944 -7.19078,-20.623041 -0.0371,-0.04239 -1.47024,3.956832 -3.18444,8.887369 -1.71422,4.930525 -3.35471,9.643533 -3.64555,10.473276 l -0.52882,1.508625 h 7.307 7.30698 z M 90.603532,69.680043 c -0.02013,-0.05244 -1.662968,-4.7682 -3.650782,-10.479347 -1.987808,-5.711182 -3.650849,-10.346467 -3.695641,-10.300597 -0.04482,0.0458 -1.660642,4.625798 -3.590775,10.177653 -1.93013,5.551889 -3.561599,10.230096 -3.625486,10.396033 l -0.116129,0.301738 h 7.357707 c 4.126569,0 7.341644,-0.04183 7.321131,-0.09552 z"
       id="path3078-6"
       sodipodi:nodetypes="cssscccccccssssssscsssscssccsssssscscsscccssccccccccsssscccscsssscscc" /></g></svg>
